<?xml version="1.0" standalone="no"?>
<!DOCTYPE svg PUBLIC "-//W3C//DTD SVG 20010904//EN"
 "http://www.w3.org/TR/2001/REC-SVG-20010904/DTD/svg10.dtd">
<svg version="1.0" xmlns="http://www.w3.org/2000/svg"
 width="512.000000pt" height="512.000000pt" viewBox="0 0 512.000000 512.000000"
 preserveAspectRatio="xMidYMid meet">

<g transform="translate(0.000000,512.000000) scale(0.100000,-0.100000)"
fill="#000000" stroke="none">
<path d="M2350 4970 c-315 -11 -530 -43 -778 -114 -634 -183 -1114 -593 -1359
-1163 -126 -292 -196 -635 -210 -1028 -25 -721 230 -1383 712 -1843 367 -350
824 -565 1395 -654 131 -20 181 -23 505 -23 396 0 521 11 795 65 599 119 1049
402 1345 845 179 268 287 593 329 995 18 168 36 551 36 760 0 372 -55 723
-154 980 -255 659 -803 1045 -1656 1166 -136 19 -627 26 -960 14z m71 -789
c505 -170 891 -539 1090 -1038 29 -72 99 -326 99 -358 0 -7 -64 -71 -143 -141
-78 -70 -153 -137 -166 -149 l-23 -23 61 -93 c116 -176 208 -394 251 -599 19
-86 20 -104 9 -115 -8 -8 -225 -203 -484 -434 l-470 -419 -7 36 c-4 20 -14
109 -23 198 -8 88 -26 204 -39 258 -100 394 -403 716 -794 845 -48 16 -159 44
-247 62 -88 17 -163 35 -168 39 -4 3 182 175 413 381 231 205 420 376 420 379
0 15 -169 127 -255 170 -116 57 -220 89 -430 131 -82 17 -152 33 -154 35 -3 2
13 19 35 38 21 19 237 212 479 429 242 218 445 396 451 396 5 1 48 -12 95 -28z"/>
<path d="M2188 3689 c-111 -100 -204 -185 -205 -188 -1 -3 42 -27 95 -53 177
-86 343 -213 466 -357 58 -68 83 -89 154 -126 100 -53 195 -116 276 -182 32
-26 69 -57 81 -67 l24 -19 98 89 c54 49 100 90 102 91 8 5 -54 176 -99 268
-145 298 -368 524 -665 672 -44 22 -90 43 -102 47 -17 6 -56 -25 -225 -175z"/>
<path d="M2195 2599 c-104 -93 -196 -176 -204 -184 -11 -11 -1 -19 65 -50 207
-95 446 -296 581 -488 70 -99 161 -277 195 -382 13 -38 26 -72 30 -75 3 -3 99
78 212 178 233 208 216 175 165 313 -128 353 -410 664 -741 819 -47 22 -92 40
-99 40 -8 -1 -99 -77 -204 -171z"/>
</g>
</svg>
